<svg width="17" height="17" viewBox="0 0 17 17" fill="none" xmlns="http://www.w3.org/2000/svg">
<g clip-path="url(#clip0_0_935)">
<path d="M6.15265 7.53988C6.85989 7.53988 7.53817 7.25892 8.03827 6.75883C8.53836 6.25873 8.81932 5.58045 8.81932 4.87321C8.81932 4.16597 8.53836 3.48769 8.03827 2.98759C7.53817 2.48749 6.85989 2.20654 6.15265 2.20654C5.44541 2.20654 4.76713 2.48749 4.26703 2.98759C3.76693 3.48769 3.48598 4.16597 3.48598 4.87321C3.48598 5.58045 3.76693 6.25873 4.26703 6.75883C4.76713 7.25892 5.44541 7.53988 6.15265 7.53988ZM12.1526 7.53988C12.6831 7.53988 13.1918 7.32916 13.5669 6.95409C13.9419 6.57902 14.1526 6.07031 14.1526 5.53988C14.1526 5.00944 13.9419 4.50074 13.5669 4.12566C13.1918 3.75059 12.6831 3.53988 12.1526 3.53988C11.6222 3.53988 11.1135 3.75059 10.7384 4.12566C10.3634 4.50074 10.1526 5.00944 10.1526 5.53988C10.1526 6.07031 10.3634 6.57902 10.7384 6.95409C11.1135 7.32916 11.6222 7.53988 12.1526 7.53988ZM3.65265 8.87321C3.25482 8.87321 2.87329 9.03124 2.59199 9.31255C2.31068 9.59385 2.15265 9.97538 2.15265 10.3732V10.5399C2.15265 10.5399 2.15265 13.5399 6.15265 13.5399C7.07932 13.5399 7.79132 13.3792 8.33798 13.1312C8.21468 12.7233 8.15223 12.2994 8.15265 11.8732C8.15265 10.7685 8.56598 9.76054 9.24598 8.99521C9.0586 8.91449 8.85668 8.87297 8.65265 8.87321H3.65265ZM16.1526 11.8732C16.1526 12.8457 15.7663 13.7783 15.0787 14.4659C14.3911 15.1536 13.4584 15.5399 12.486 15.5399C11.5135 15.5399 10.5809 15.1536 9.89326 14.4659C9.20562 13.7783 8.81932 12.8457 8.81932 11.8732C8.81932 10.9007 9.20562 9.96812 9.89326 9.28048C10.5809 8.59285 11.5135 8.20654 12.486 8.20654C13.4584 8.20654 14.3911 8.59285 15.0787 9.28048C15.7663 9.96812 16.1526 10.9007 16.1526 11.8732ZM12.856 9.81988C12.8331 9.73939 12.7846 9.66856 12.7178 9.61813C12.6511 9.5677 12.5697 9.54042 12.486 9.54042C12.4023 9.54042 12.3209 9.5677 12.2541 9.61813C12.1874 9.66856 12.1389 9.73939 12.116 9.81988L11.7446 11.0119H10.5426C10.1653 11.0119 10.0093 11.5145 10.314 11.7452L11.286 12.4819L10.9146 13.6732C10.798 14.0472 11.2086 14.3585 11.514 14.1272L12.486 13.3912L13.458 14.1272C13.7633 14.3585 14.174 14.0472 14.0573 13.6739L13.686 12.4819L14.658 11.7459C14.9633 11.5145 14.8067 11.0119 14.4293 11.0119H13.2273L12.856 9.81988Z" fill="#7482AE"/>
</g>
<defs>
<clipPath id="clip0_0_935">
<rect width="16" height="16" fill="white" transform="translate(0.819275 0.206543)"/>
</clipPath>
</defs>
</svg>
