<svg width="102" height="25" viewBox="0 0 102 25" fill="none" xmlns="http://www.w3.org/2000/svg">
<path fill-rule="evenodd" clip-rule="evenodd" d="M45.131 0.000743554C45.3259 -0.00706124 45.6922 0.0475723 45.9494 0.117816C46.2066 0.180254 46.5885 0.328545 46.7989 0.445617C47.0093 0.562689 47.3211 0.812442 47.4847 1.00756C47.6562 1.20268 47.8978 1.5539 48.0147 1.78804C48.1316 2.02219 48.2953 2.44365 48.3732 2.72462C48.4901 3.12266 48.5135 3.5051 48.5135 4.51972C48.5135 5.54995 48.4745 5.97141 48.3342 6.62702C48.2407 7.07969 47.9991 7.93822 47.7965 8.53919C47.6016 9.14797 47.173 10.1704 46.8379 10.8416C46.5105 11.505 45.9572 12.4728 45.6142 12.9879C45.2713 13.503 44.7569 14.2133 44.4764 14.5723C43.9854 15.1811 43.9698 15.2201 44.0789 15.384C44.149 15.4855 44.1958 15.7274 44.1958 15.9537C44.188 16.2972 44.1568 16.3752 43.8996 16.625C43.736 16.7889 43.4944 16.9372 43.3385 16.9684C43.1436 17.0152 42.98 16.984 42.4422 16.7342L41.7408 17.265C41.3511 17.5537 40.9926 17.7879 40.938 17.7879C40.8913 17.7879 40.8445 17.7645 40.8445 17.7254C40.8445 17.6942 41.1329 17.4054 42.1305 16.4845L42.0993 16.024C42.0759 15.5947 42.0837 15.5479 42.3331 15.2669C42.489 15.0952 42.715 14.9391 42.8709 14.9001C43.0189 14.8611 43.2216 14.8455 43.3151 14.8611C43.4632 14.8923 43.5645 14.8064 43.8529 14.4084C44.0477 14.143 44.4062 13.6045 44.6478 13.2221C44.8816 12.8396 45.3103 12.0435 45.5909 11.466C45.8792 10.8884 46.2533 9.97527 46.4326 9.43674C46.6118 8.89821 46.8379 8.09432 46.9314 7.64164C47.0639 7.01726 47.1028 6.54116 47.1106 5.65142C47.1106 4.75387 47.0795 4.36363 46.9703 3.97339C46.8924 3.69241 46.7443 3.30217 46.643 3.09144C46.5417 2.88852 46.3079 2.56072 46.1208 2.3656C45.9416 2.16267 45.6298 1.92072 45.4194 1.81926C45.2168 1.7178 44.8349 1.60073 44.5621 1.5539C44.2503 1.50707 43.8918 1.50707 43.5489 1.5539C43.2605 1.60073 42.8631 1.68658 42.6526 1.75682C42.45 1.82707 41.9746 2.0456 41.5849 2.24072C41.1952 2.44365 40.6029 2.81047 40.26 3.06022C39.9171 3.31778 39.1689 3.98899 38.5999 4.56655C38.0388 5.1441 37.5322 5.61239 37.4932 5.61239C37.4543 5.61239 37.4153 5.59678 37.4153 5.57337C37.4153 5.54995 37.5945 5.3002 37.8128 5.00362C38.031 4.71484 38.4752 4.16851 38.8026 3.79387C39.1299 3.41144 39.6988 2.84169 40.0651 2.51389C40.4314 2.19389 40.9536 1.76463 41.2342 1.5617C41.5148 1.36658 42.0058 1.05439 42.3253 0.867076C42.6448 0.687566 43.1748 0.453422 43.4944 0.344155C43.8139 0.234887 44.2348 0.117816 44.4296 0.0787915C44.6244 0.0397675 44.9362 0.00854835 45.131 0.000743554ZM60.4846 20.8317L60.4456 21.4171L57.8347 21.4561V22.3147L60.4456 22.3537L60.4846 22.939H57.8347L57.8737 23.8366L60.4846 23.8756L60.4456 24.461L59.1597 24.4844C58.4504 24.4922 57.7958 24.4844 57.6945 24.461C57.6009 24.4376 57.4529 24.3517 57.3671 24.2659C57.219 24.1176 57.2112 24.0083 57.2112 22.6659C57.219 21.2376 57.219 21.2142 57.4061 21.0269C57.5931 20.8317 57.6087 20.8317 60.4846 20.8317ZM65.153 20.8317H65.8622L65.9012 23.8366L68.4342 23.8756V24.5L66.9923 24.4844C65.6128 24.461 65.5505 24.4532 65.379 24.2815C65.2076 24.1098 65.1998 24.0473 65.1764 22.4708L65.153 20.8317ZM76.4617 20.8317V21.4561L73.8508 21.4952L73.8118 22.3147H76.4617V22.939H73.8118V23.3683C73.8118 23.6805 73.843 23.8054 73.9287 23.8366C73.9911 23.8522 74.5912 23.8756 76.4617 23.8756V24.5H73.6559L73.1883 24.0317L73.2117 22.58C73.2273 21.1595 73.2351 21.1283 73.4143 20.98C73.578 20.8474 73.7417 20.8317 76.4617 20.8317ZM84.4112 20.8317V21.4561H81.8393L81.8783 23.8366L84.4112 23.8756V24.5H83.0863C82.1277 24.5 81.7068 24.4688 81.5509 24.3907C81.434 24.3361 81.3093 24.2268 81.2781 24.1566C81.247 24.0863 81.2158 23.3839 81.2002 21.1517L81.4184 20.9878C81.6133 20.8396 81.738 20.8317 84.4112 20.8317ZM90.8176 20.8317C92.0256 20.8317 92.0568 20.8317 92.2439 21.0269C92.4387 21.222 92.4387 21.2298 92.4387 22.6659C92.4387 24.0005 92.4309 24.1176 92.2828 24.2659C92.1971 24.3517 92.049 24.4376 91.9555 24.461C91.8542 24.4844 91.2775 24.5 90.6695 24.4844C89.633 24.461 89.5473 24.4454 89.3836 24.2815C89.2199 24.1176 89.2043 24.0317 89.181 22.8766C89.1654 22.2054 89.1732 21.5342 89.1965 21.3937C89.2277 21.2532 89.3212 21.0737 89.4148 20.9878C89.5706 20.8474 89.6953 20.8317 90.8176 20.8317ZM89.9058 23.8366H91.7762L91.8074 21.4561H89.8668L89.9058 23.8366ZM99.0088 20.8317C100.365 20.8317 100.435 20.8396 100.599 21.0035C100.778 21.1752 100.778 21.2142 100.778 24.5H100.154V21.4561L97.8553 21.4952L97.8164 24.5L97.2318 24.461V22.7908C97.2318 21.1361 97.2318 21.1283 97.4111 20.98C97.5825 20.8474 97.7384 20.8317 99.0088 20.8317ZM50.5087 21.6903H51.1322V24.5H50.5087V21.6903ZM99.2972 21.6903V24.5L98.7126 24.461L98.697 23.1732C98.6892 22.4708 98.697 21.8464 98.7126 21.7917C98.7282 21.7293 98.8607 21.6903 99.2972 21.6903Z" fill="#BA1319"/>
<path d="M3.83229 8.36748C3.94141 8.21138 4.15184 8.02407 4.29992 7.94602C4.448 7.86797 4.70519 7.79773 4.87665 7.79773C5.04811 7.79773 5.3053 7.86017 5.45338 7.93822C5.60146 8.00846 5.81968 8.19577 5.94438 8.34407C6.06129 8.49236 6.94977 10.4436 9.68535 16.7342L9.66197 17.2571C9.63859 17.6318 9.58404 17.8347 9.46713 17.9986C9.35023 18.1547 9.22553 18.2249 9.02289 18.2327C8.79687 18.2484 8.71114 18.2171 8.61762 18.0766C8.55527 17.983 7.79149 16.2581 6.9108 14.2367C6.03011 12.2152 5.24295 10.4826 5.16502 10.3733C5.07928 10.264 4.97017 10.1782 4.90782 10.1782C4.85327 10.1782 4.73636 10.2875 4.64284 10.4123C4.55711 10.545 3.76995 12.2933 2.88926 14.2991C2.00857 16.3128 1.2292 18.022 1.15906 18.1079C1.06554 18.2067 0.935641 18.2484 0.769376 18.2327C0.582328 18.2249 0.473216 18.1469 0.340723 17.944C0.192643 17.7254 0.161469 17.5693 0.161469 17.1635C0.161469 16.6796 0.231612 16.4923 1.89946 12.6445C2.85029 10.4436 3.72318 8.51577 3.83229 8.36748Z" fill="#B1B3B5"/>
<path d="M91.0592 9.10113C91.1761 8.89821 91.4177 8.62504 91.597 8.50016L91.9243 8.26602L100.653 8.30504L100.833 8.57821C100.981 8.78894 101.012 8.96064 101.012 9.33527C101.012 9.60844 100.981 9.91283 100.934 10.0221C100.895 10.1314 100.786 10.2875 100.7 10.3733C100.544 10.5294 100.443 10.5294 92.127 10.5294L91.9945 10.7401C91.9088 10.865 91.8542 11.0992 91.8542 11.3099C91.8542 11.5206 91.9087 11.7548 92.127 12.0904H95.8913C98.1281 12.0904 99.7648 12.1216 99.944 12.1684C100.1 12.2152 100.349 12.3479 100.49 12.4728C100.622 12.5899 100.833 12.863 100.949 13.0738C101.059 13.2845 101.214 13.6825 101.285 13.9635C101.386 14.3538 101.409 14.6972 101.386 15.4464C101.355 16.2269 101.308 16.5157 101.168 16.8903C101.066 17.1479 100.871 17.4991 100.739 17.663C100.614 17.8269 100.38 18.0298 100.232 18.1157C99.9752 18.2484 99.6946 18.2562 91.3866 18.264L91.2151 18.0845C91.1216 17.983 91.0047 17.7254 90.9579 17.5147C90.9112 17.2962 90.8956 16.9996 90.9267 16.8513C90.9579 16.703 91.0281 16.4845 91.0826 16.3596C91.145 16.2425 91.2619 16.1176 91.3476 16.0708C91.4489 16.024 93.0466 15.9928 99.8427 15.9928L99.9752 15.7742C100.053 15.6572 100.116 15.4074 100.116 15.2123C100.116 15.0172 100.053 14.7674 99.8427 14.4318H96.0862C93.8416 14.4318 92.2049 14.4006 92.0334 14.3538C91.8698 14.3069 91.6126 14.1586 91.4567 14.0182C91.3008 13.8855 91.0904 13.6123 90.9969 13.4172C90.8956 13.2221 90.7553 12.8552 90.6773 12.5977C90.576 12.2543 90.5371 11.8952 90.5448 11.2709C90.5448 10.6621 90.5916 10.2797 90.7007 9.94405C90.7787 9.68649 90.9423 9.31186 91.0592 9.10113Z" fill="#B1B3B5"/>
<path d="M41.8577 4.1685C42.0915 3.98899 42.4267 3.76265 42.5981 3.6768C42.7696 3.58314 42.9566 3.5129 43.0034 3.5051C43.058 3.5051 43.1047 3.53632 43.1047 3.58314C43.1047 3.62217 42.9566 3.78607 42.7696 3.93436C42.5903 4.09046 42.1305 4.55094 41.7564 4.9724C41.3745 5.38605 40.7588 6.13531 40.3847 6.62702C40.0106 7.11872 39.5118 7.85237 39.2624 8.24261C39.0208 8.64065 38.5922 9.41333 38.3194 9.95966C38.0466 10.5138 37.6959 11.2943 37.5322 11.7001C37.3764 12.106 37.127 12.8787 36.9789 13.4172C36.8308 13.9557 36.6593 14.744 36.597 15.1733C36.5346 15.6025 36.4801 16.383 36.4801 16.9059C36.4801 17.4445 36.5346 18.1313 36.597 18.4669C36.6593 18.8025 36.8152 19.2864 36.9321 19.544C37.0568 19.8015 37.2906 20.1683 37.4621 20.3478C37.6258 20.5352 37.9375 20.7771 38.1557 20.8786C38.3662 20.98 38.7558 21.0893 39.013 21.1127C39.3248 21.1517 39.6755 21.1205 40.0652 21.0347C40.3925 20.9644 40.9926 20.7381 41.4291 20.5274C41.8577 20.3166 42.4578 19.9732 42.7696 19.7625C43.0735 19.5596 43.6347 19.1225 44.0166 18.7947C44.3907 18.4669 44.9284 17.9362 45.209 17.6006C45.4896 17.2728 45.739 17.0074 45.7702 17.0074C45.8091 17.0074 45.8481 17.0932 45.8715 17.2025C45.8949 17.3118 45.8637 17.4601 45.8169 17.5303C45.7624 17.6084 45.435 18.0064 45.0843 18.4123C44.7258 18.8181 44.2192 19.3644 43.9464 19.6298C43.6737 19.8952 43.2294 20.301 42.9488 20.5274C42.6683 20.7615 42.2162 21.1127 41.9357 21.3C41.6551 21.4873 41.1641 21.7761 40.8445 21.9322C40.525 22.0883 40.0652 22.2756 39.8314 22.3459C39.5976 22.4083 39.1923 22.4864 38.9351 22.5176C38.6623 22.5488 38.2726 22.5254 37.9999 22.4708C37.7427 22.4161 37.3374 22.2834 37.1036 22.1742C36.8698 22.0571 36.4645 21.7683 36.2073 21.5264C35.9345 21.2766 35.654 20.9098 35.5293 20.6678C35.4201 20.4337 35.2643 20.02 35.1863 19.7391C35.0928 19.3801 35.0538 18.943 35.0538 18.2171C35.0538 17.5928 35.1084 16.9059 35.1941 16.422C35.2643 15.9928 35.4279 15.2825 35.5526 14.8377C35.6773 14.4006 35.9423 13.5967 36.1372 13.0426C36.332 12.4962 36.7607 11.505 37.0802 10.8416C37.3997 10.1782 37.8206 9.35089 38.0154 9.00748C38.2103 8.66407 38.6156 8.01627 38.9195 7.56359C39.2157 7.11091 39.6599 6.49433 39.8937 6.19775C40.1353 5.90117 40.5796 5.39386 40.8757 5.07386C41.1797 4.76167 41.6239 4.35582 41.8577 4.1685Z" fill="#BA1319"/>
<path d="M4.22981 15.103C4.3701 15.0016 4.55714 14.9001 4.64287 14.8767C4.72861 14.8611 4.84551 14.8377 4.89227 14.8299C4.94683 14.8299 5.14167 14.8845 5.32093 14.9625C5.49239 15.0328 5.70282 15.1811 5.78075 15.2903C5.85869 15.3996 5.94442 15.6103 5.9756 15.7586C6.01456 15.9537 5.98339 16.1255 5.88207 16.3362C5.79634 16.5001 5.64826 16.703 5.53915 16.7733C5.43004 16.8513 5.24299 16.9372 5.1105 16.9684C4.978 16.9996 4.75199 16.984 4.60391 16.945C4.45583 16.8981 4.2376 16.7498 4.1129 16.625C3.996 16.4923 3.87909 16.2659 3.85571 16.1333C3.83233 15.9928 3.84792 15.743 3.89468 15.5869C3.94924 15.4074 4.08173 15.2123 4.22981 15.103Z" fill="#BA1319"/>
<path d="M49.1838 21.4561V21.1439V20.8317H52.4571V21.4561H49.1838Z" fill="#BA1319"/>
<path d="M26.434 8.25041C26.4807 8.14895 26.5743 8.00846 26.6444 7.93822V7.93041C26.7068 7.86017 26.8548 7.79773 26.9639 7.79773C27.0731 7.79773 27.2289 7.83675 27.2991 7.89139C27.377 7.94602 28.1642 9.66308 29.0449 11.7001C29.9333 13.7372 30.7361 15.5245 30.8218 15.665C30.9153 15.7976 31.04 15.9069 31.1024 15.8991C31.1647 15.8835 31.2816 15.7664 31.3752 15.6416C31.4609 15.5089 32.2481 13.7606 33.1288 11.747C34.0094 9.74112 34.7888 8.02407 34.859 7.94602C34.9525 7.85236 35.085 7.80553 35.2486 7.81334C35.4123 7.82895 35.5448 7.907 35.6539 8.05529C35.7708 8.21919 35.8254 8.42211 35.8721 9.31967L34.1497 13.3391C33.1989 15.5479 32.3182 17.4835 32.2013 17.6318C32.0844 17.7801 31.8662 17.983 31.7181 18.0845C31.5466 18.2015 31.3362 18.2562 31.118 18.2562C30.9387 18.2562 30.6971 18.2093 30.5724 18.1469C30.4555 18.0845 30.2685 17.9362 30.1594 17.8113C30.0425 17.6942 29.8788 17.4523 29.7931 17.2806C29.7073 17.1089 28.8968 15.2669 27.9927 13.183C26.4418 9.60064 26.3482 9.3743 26.3482 8.91382C26.3482 8.64065 26.3872 8.34407 26.434 8.25041Z" fill="#B1B3B5"/>
<path d="M42.0058 8.47675C42.1149 8.31285 42.3487 8.09431 42.5201 7.99285C42.7072 7.88358 42.9566 7.80553 43.1436 7.80553C43.3619 7.80553 43.5723 7.87578 43.8217 8.03968C44.149 8.2426 44.2425 8.36748 44.5777 9.06991C44.7881 9.51478 44.9752 9.92844 44.9829 9.99868C44.9985 10.0689 44.8037 10.3967 44.5465 10.7167C44.2893 11.0445 44.0321 11.3099 43.9776 11.3099C43.9308 11.3177 43.7749 11.0992 43.6424 10.826C43.5177 10.5606 43.3619 10.2875 43.2995 10.225C43.2294 10.1548 43.1436 10.1314 43.0657 10.1626C43.0034 10.2016 42.8787 10.3577 42.8007 10.5138C42.7228 10.6777 41.9434 12.426 41.0783 14.4006C40.221 16.3752 39.4494 18.0532 39.3793 18.1313C39.3091 18.2093 39.1689 18.2718 39.0675 18.264C38.974 18.264 38.8259 18.2327 38.7402 18.1859C38.6545 18.1391 38.5298 17.9596 38.4596 17.7723C38.3817 17.5693 38.3505 17.2962 38.3661 17.0542C38.3895 16.7654 38.8337 15.6572 40.1041 12.7226C41.0393 10.5528 41.8966 8.64845 42.0058 8.47675Z" fill="#B1B3B5"/>
<path d="M12.4365 8.75772C12.5067 8.60162 12.6158 8.42211 12.6937 8.36748C12.795 8.29724 13.777 8.27382 16.9724 8.27382C20.3549 8.27382 21.1654 8.29724 21.3369 8.38309C21.4616 8.43772 21.7032 8.64845 21.8825 8.85138C22.0695 9.0465 22.3423 9.46796 22.4904 9.77234C22.6385 10.0845 22.8255 10.6075 22.9112 10.9275C22.9892 11.2474 23.1061 11.8796 23.1528 12.3323C23.2152 12.824 23.2308 13.4172 23.1996 13.8152C23.1684 14.1821 23.0905 14.7596 23.0203 15.103C22.958 15.4464 22.8177 15.9694 22.7086 16.2737C22.5995 16.5703 22.4436 16.945 22.3501 17.0932C22.2644 17.2415 22.0851 17.5069 21.9526 17.6708C21.8201 17.8347 21.5785 18.0376 21.4148 18.1157C21.1421 18.2562 20.8693 18.264 16.9958 18.264C14.7201 18.264 12.8028 18.2327 12.7249 18.1937C12.6547 18.1625 12.53 17.983 12.4521 17.8035C12.3352 17.5225 12.3196 17.2025 12.3196 15.1967C12.3196 13.0894 12.3352 12.8943 12.4755 12.5821C12.569 12.3948 12.7093 12.223 12.8262 12.1762C12.9665 12.1216 13.0756 12.1294 13.2159 12.1918C13.325 12.2465 13.4653 12.4104 13.5276 12.543C13.6212 12.746 13.6445 13.1674 13.6445 16.0006L20.8849 15.9615L21.1654 15.6884C21.3135 15.5401 21.5162 15.2357 21.6019 15.025C21.6954 14.8064 21.8045 14.3147 21.8513 13.9323C21.9136 13.425 21.9136 13.0426 21.8513 12.5665C21.8045 12.1996 21.6876 11.7157 21.5863 11.4816C21.485 11.2475 21.2668 10.9431 20.8147 10.5372H16.8555C13.0055 10.545 12.8963 10.5372 12.6859 10.3811C12.569 10.2953 12.4443 10.1001 12.3975 9.92844C12.3586 9.77234 12.3196 9.50698 12.3196 9.34308C12.3196 9.18698 12.3742 8.92162 12.4365 8.75772Z" fill="#B1B3B5"/>
<path d="M50.119 9.14015C50.2281 8.90601 50.4307 8.61723 50.571 8.49236C50.7581 8.32846 50.9062 8.27382 51.1322 8.27382C51.3036 8.27382 51.5063 8.29724 51.5764 8.32846C51.6543 8.36748 53.1429 9.89722 54.8965 11.747C56.6423 13.5889 58.1932 15.2045 58.3413 15.3372C58.5673 15.5245 58.6375 15.5557 58.7154 15.4698C58.7622 15.4152 58.8323 15.0952 58.8635 14.7674C58.8947 14.4396 58.9181 12.9723 58.9181 11.5128C58.9181 8.87105 58.9258 8.85921 59.1043 8.58727L59.1051 8.58601C59.1986 8.43772 59.3545 8.29724 59.4324 8.28943C59.5182 8.27382 59.6663 8.28163 59.7598 8.30504C59.8767 8.33626 59.9936 8.47675 60.0949 8.70309C60.243 9.03869 60.2508 9.19479 60.2274 12.9723C60.2118 16.6484 60.1962 16.9215 60.0559 17.2884C59.9702 17.4991 59.7832 17.8113 59.6273 17.9674C59.3935 18.2171 59.3077 18.2562 59.0038 18.264C58.8012 18.264 58.5673 18.2093 58.4426 18.1235C58.3335 18.0532 56.8371 16.5157 55.1225 14.7128C53.4079 12.9099 51.8959 11.3255 51.7635 11.2006C51.5296 10.9743 51.5141 10.9743 51.3816 11.107C51.2647 11.2318 51.2491 11.544 51.2101 14.5021L51.2098 14.5278C51.1711 17.7178 51.1707 17.7573 50.9919 18.0064C50.8438 18.2249 50.7814 18.264 50.5321 18.2405C50.3294 18.2327 50.2047 18.1625 50.0878 18.0064C49.9241 17.7879 49.9241 17.7254 49.9241 9.56161L50.119 9.14015Z" fill="#B1B3B5"/>
<path d="M64.0073 8.69528C64.1476 8.5626 64.3347 8.41431 64.4204 8.36748C64.5295 8.30504 65.9012 8.28163 68.8784 8.27382C73.087 8.27382 73.1883 8.27382 73.3442 8.42992C73.4299 8.51577 73.5312 8.7187 73.578 8.87479C73.617 9.03869 73.6559 9.27284 73.6559 9.40552C73.6559 9.53039 73.6092 9.78015 73.5546 9.94405C73.5078 10.1079 73.3753 10.3109 73.2662 10.3967C73.0792 10.5372 72.8688 10.545 64.7711 10.5372L64.6152 10.7479C64.5061 10.8884 64.4516 11.0835 64.4594 11.2943C64.4594 11.4816 64.5139 11.7313 64.6932 12.0982H68.4497C70.6943 12.0982 72.331 12.1294 72.5025 12.1762C72.6661 12.223 72.9389 12.387 73.1182 12.543C73.2896 12.7069 73.5234 13.0113 73.6247 13.2299C73.7261 13.4406 73.8663 13.8855 73.9365 14.2055C74.0222 14.6113 74.0456 15.0016 74.0222 15.4933C73.9988 15.8757 73.9053 16.422 73.8196 16.703C73.7339 16.984 73.5468 17.3664 73.4065 17.5615C73.2584 17.7567 73.0168 17.9908 72.6038 18.2718L63.8904 18.2249L63.7268 18.0064C63.6099 17.8503 63.5553 17.6396 63.5397 17.304C63.5163 16.9918 63.5553 16.703 63.6332 16.4845C63.7034 16.305 63.8281 16.1176 63.9138 16.0786C64.0151 16.0318 65.605 16.0006 68.2159 16.0006C72.3622 16.0084 72.37 16.0084 72.5258 15.8367C72.6427 15.7118 72.6817 15.5635 72.6817 15.2201C72.6817 14.8767 72.6427 14.7284 72.5258 14.6035C72.3702 14.4398 72.3233 14.4396 64.6097 14.4008L64.5763 14.4006L64.2723 14.2055C64.1009 14.0962 63.8748 13.8699 63.7579 13.6982C63.641 13.5265 63.4696 13.1752 63.3683 12.9177C63.2358 12.5665 63.1812 12.2309 63.1578 11.5909C63.1266 10.9665 63.15 10.584 63.2436 10.2016C63.3137 9.91283 63.454 9.51478 63.5553 9.30406C63.6566 9.10113 63.8593 8.82796 64.0073 8.69528Z" fill="#B1B3B5"/>
<path d="M77.015 8.75772C77.0618 8.64065 77.1553 8.48455 77.2254 8.4065C77.3112 8.31285 77.4359 8.27382 77.6229 8.28943C77.8801 8.31285 77.9424 8.37528 78.527 9.2182C78.8699 9.71771 79.3453 10.3655 79.5869 10.6621C79.8207 10.9587 80.1714 11.3255 80.3663 11.4816C80.5533 11.6377 80.8339 11.8328 80.982 11.9109C81.208 12.0357 81.4262 12.0591 82.3069 12.0591C83.3045 12.0591 83.3746 12.0513 83.7098 11.8562C83.9046 11.7392 84.3099 11.3879 84.606 11.0679C84.9022 10.7557 85.3776 10.1626 85.6582 9.76454C85.9388 9.35869 86.2973 8.85918 86.4531 8.65626C86.6792 8.36748 86.8039 8.27382 86.9597 8.27382C87.0844 8.27382 87.2481 8.34407 87.3494 8.44553C87.4429 8.54699 87.5599 8.78894 87.5988 8.99186C87.6612 9.24942 87.6612 9.48357 87.6066 9.73332C87.5521 9.99088 87.3494 10.3733 86.9364 10.9665C86.609 11.4348 86.1726 12.0357 85.9699 12.2933C85.7595 12.5509 85.3542 12.9957 85.0581 13.2767C84.7697 13.5655 84.3878 13.8855 84.2164 13.9869C84.0449 14.0962 83.7799 14.2211 83.6318 14.2679C83.4838 14.3069 83.2655 14.3694 82.9304 14.4396V16.0552C82.9382 17.624 82.9304 17.6864 82.7512 17.9518C82.5953 18.1859 82.5329 18.2249 82.2679 18.2249C82.003 18.2249 81.9406 18.1937 81.8081 17.9518C81.66 17.7098 81.6367 17.5147 81.5665 14.4006L81.1768 14.346C80.9586 14.3147 80.6001 14.1742 80.3741 14.0338C80.1403 13.8933 79.6648 13.4796 79.3141 13.1128C78.9634 12.746 78.3399 11.9733 77.9269 11.3957C77.5138 10.8182 77.1241 10.2094 77.054 10.0455C76.9838 9.88942 76.9293 9.57722 76.9293 9.36649C76.9293 9.14796 76.9682 8.8826 77.015 8.75772Z" fill="#B1B3B5"/>
<path d="M45.209 14.3616L45.6922 13.7372H45.7C45.965 13.4016 46.2221 13.1206 46.2611 13.1128C46.3001 13.1128 46.6898 13.9089 47.1106 14.8845C47.6484 16.1176 47.8978 16.7811 47.9212 17.0542C47.9368 17.2962 47.9056 17.5693 47.8276 17.7723C47.7575 17.9596 47.6328 18.1391 47.5471 18.1859C47.4613 18.2249 47.3133 18.264 47.2197 18.264C47.1184 18.264 46.9859 18.2093 46.9236 18.1547C46.8612 18.0923 46.4482 17.2181 45.209 14.3616Z" fill="#B1B3B5"/>
</svg>
