<svg width="21" height="23" viewBox="0 0 21 23" fill="none" xmlns="http://www.w3.org/2000/svg">
<path d="M14.6419 0.117816C14.3847 0.0475723 14.0184 -0.00706124 13.8235 0.000743554C13.6287 0.00854835 13.3169 0.0397675 13.1221 0.0787915C12.9273 0.117816 12.5064 0.234887 12.1869 0.344155C11.8673 0.453422 11.3374 0.687566 11.0178 0.867076C10.6983 1.05439 10.2073 1.36658 9.92669 1.5617C9.64612 1.76463 9.12394 2.19389 8.75764 2.51389C8.39134 2.84169 7.8224 3.41144 7.49506 3.79387C7.16773 4.16851 6.72349 4.71484 6.50527 5.00362C6.28704 5.3002 6.10779 5.54995 6.10779 5.57337C6.10779 5.59678 6.14676 5.61239 6.18572 5.61239C6.22469 5.61239 6.73128 5.1441 7.29243 4.56655C7.86137 3.98899 8.60956 3.31778 8.95248 3.06022C9.29541 2.81047 9.88773 2.44365 10.2774 2.24072C10.6671 2.0456 11.1425 1.82707 11.3451 1.75682C11.5556 1.68658 11.9531 1.60073 12.2414 1.5539C12.5843 1.50707 12.9429 1.50707 13.2546 1.5539C13.5274 1.60073 13.9093 1.7178 14.1119 1.81926C14.3223 1.92072 14.6341 2.16267 14.8133 2.3656C15.0004 2.56072 15.2342 2.88852 15.3355 3.09144C15.4368 3.30217 15.5849 3.69241 15.6628 3.97339C15.772 4.36363 15.8031 4.75387 15.8031 5.65142C15.7953 6.54116 15.7564 7.01726 15.6239 7.64164C15.5304 8.09432 15.3043 8.89821 15.1251 9.43674C14.9458 9.97527 14.5717 10.8884 14.2834 11.466C14.0028 12.0435 13.5741 12.8396 13.3403 13.2221C13.0987 13.6045 12.7402 14.143 12.5454 14.4084C12.257 14.8064 12.1557 14.8923 12.0076 14.8611C11.9141 14.8455 11.7114 14.8611 11.5634 14.9001C11.4075 14.9391 11.1815 15.0952 11.0256 15.2669C10.7762 15.5479 10.7684 15.5947 10.7918 16.024L10.823 16.4845C9.82538 17.4054 9.53701 17.6942 9.53701 17.7254C9.53701 17.7645 9.58377 17.7879 9.63053 17.7879C9.68509 17.7879 10.0436 17.5537 10.4333 17.265L11.1347 16.7342C11.6725 16.984 11.8361 17.0152 12.031 16.9684C12.1869 16.9372 12.4285 16.7889 12.5921 16.625C12.8493 16.3752 12.8805 16.2972 12.8883 15.9537C12.8883 15.7274 12.8415 15.4855 12.7714 15.384C12.6623 15.2201 12.6779 15.1811 13.1689 14.5723C13.4494 14.2133 13.9638 13.503 14.3067 12.9879C14.6497 12.4728 15.203 11.505 15.5304 10.8416C15.8655 10.1704 16.2941 9.14797 16.489 8.53919C16.6916 7.93822 16.9332 7.07969 17.0267 6.62702C17.167 5.97141 17.206 5.54995 17.206 4.51972C17.206 3.5051 17.1826 3.12266 17.0657 2.72462C16.9878 2.44365 16.8241 2.02219 16.7072 1.78804C16.5903 1.5539 16.3487 1.20268 16.1772 1.00756C16.0136 0.812442 15.7018 0.562689 15.4914 0.445617C15.281 0.328545 14.8991 0.180254 14.6419 0.117816Z" fill="#BA1319"/>
<path d="M10.804 4.16829C11.0378 3.98878 11.3729 3.76244 11.5444 3.67659C11.7159 3.58293 11.9029 3.51269 11.9497 3.50488C12.0042 3.50488 12.051 3.5361 12.051 3.58293C12.051 3.62195 11.9029 3.78586 11.7159 3.93415C11.5366 4.09024 11.0768 4.55073 10.7027 4.97218C10.3208 5.38584 9.7051 6.1351 9.33101 6.6268C8.95691 7.1185 8.45811 7.85215 8.20871 8.24239C7.96711 8.64044 7.53846 9.41311 7.26568 9.95945C6.9929 10.5136 6.64218 11.2941 6.47852 11.6999C6.32264 12.1058 6.07324 12.8784 5.92516 13.417C5.77708 13.9555 5.60562 14.7438 5.54327 15.1731C5.48092 15.6023 5.42636 16.3828 5.42636 16.9057C5.42636 17.4443 5.48092 18.1311 5.54327 18.4667C5.60562 18.8023 5.7615 19.2862 5.8784 19.5437C6.0031 19.8013 6.23691 20.1681 6.40837 20.3476C6.57204 20.535 6.88379 20.7769 7.10201 20.8784C7.31244 20.9798 7.70212 21.0891 7.95931 21.1125C8.27106 21.1515 8.62178 21.1203 9.01146 21.0345C9.3388 20.9642 9.93891 20.7379 10.3754 20.5271C10.804 20.3164 11.4041 19.973 11.7159 19.7623C12.0198 19.5594 12.581 19.1223 12.9629 18.7945C13.337 18.4667 13.8747 17.936 14.1553 17.6003C14.4359 17.2725 14.6853 17.0072 14.7164 17.0072C14.7554 17.0072 14.7944 17.093 14.8178 17.2023C14.8411 17.3116 14.81 17.4599 14.7632 17.5301C14.7086 17.6082 14.3813 18.0062 14.0306 18.412C13.6721 18.8179 13.1655 19.3642 12.8927 19.6296C12.6199 19.895 12.1757 20.3008 11.8951 20.5271C11.6146 20.7613 11.1625 21.1125 10.8819 21.2998C10.6014 21.4871 10.1104 21.7759 9.79083 21.932C9.47129 22.0881 9.01146 22.2754 8.77765 22.3457C8.54384 22.4081 8.13857 22.4861 7.88138 22.5174C7.6086 22.5486 7.21892 22.5252 6.94614 22.4705C6.68894 22.4159 6.28367 22.2832 6.04986 22.174C5.81605 22.0569 5.41078 21.7681 5.15359 21.5262C4.88081 21.2764 4.60024 20.9096 4.47554 20.6676C4.36643 20.4335 4.21055 20.0198 4.13261 19.7389C4.03909 19.3798 4.00012 18.9428 4.00012 18.2169C4.00012 17.5925 4.05468 16.9057 4.14041 16.4218C4.21055 15.9926 4.37422 15.2823 4.49892 14.8374C4.62362 14.4004 4.8886 13.5965 5.08344 13.0423C5.27828 12.496 5.70694 11.5048 6.02648 10.8414C6.34602 10.178 6.76688 9.35068 6.96172 9.00726C7.15657 8.66385 7.56184 8.01606 7.86579 7.56338C8.16195 7.1107 8.60619 6.49412 8.84 6.19754C9.0816 5.90096 9.52585 5.39364 9.82201 5.07365C10.126 4.76146 10.5702 4.35561 10.804 4.16829Z" fill="#BA1319"/>
<path d="M10.9521 8.47675C11.0613 8.31285 11.2951 8.09432 11.4665 7.99286C11.6536 7.88359 11.903 7.80554 12.09 7.80554C12.3082 7.80554 12.5187 7.87579 12.7681 8.03969C13.0954 8.24261 13.1889 8.36749 13.5241 9.06992C13.7345 9.51479 13.9215 9.92845 13.9293 9.99869C13.9449 10.0689 13.7501 10.3967 13.4929 10.7167C13.2357 11.0445 12.9785 11.3099 12.9239 11.3099C12.8772 11.3177 12.7213 11.0992 12.5888 10.826C12.4641 10.5606 12.3082 10.2875 12.2459 10.225C12.1757 10.1548 12.09 10.1314 12.0121 10.1626C11.9497 10.2016 11.825 10.3577 11.7471 10.5138C11.6692 10.6777 10.8898 12.426 10.0247 14.4006C9.16739 16.3752 8.39581 18.0532 8.32567 18.1313C8.25553 18.2093 8.11524 18.2718 8.01392 18.264C7.9204 18.264 7.77232 18.2328 7.68659 18.1859C7.60086 18.1391 7.47616 17.9596 7.40601 17.7723C7.32808 17.5693 7.2969 17.2962 7.31249 17.0542C7.33587 16.7654 7.78011 15.6572 9.05048 12.7226C9.98572 10.5528 10.843 8.64846 10.9521 8.47675Z" fill="#B1B3B5"/>
<path d="M14.1553 14.3616L14.6386 13.7372H14.6463C14.9113 13.4016 15.1685 13.1206 15.2075 13.1128C15.2465 13.1128 15.6361 13.9089 16.057 14.8845C16.5948 16.1177 16.8442 16.7811 16.8675 17.0542C16.8831 17.2962 16.852 17.5693 16.774 17.7723C16.7039 17.9596 16.5792 18.1391 16.4935 18.1859C16.4077 18.2249 16.2596 18.264 16.1661 18.264C16.0648 18.264 15.9323 18.2093 15.87 18.1547C15.8076 18.0923 15.3945 17.2181 14.1553 14.3616Z" fill="#B1B3B5"/>
</svg>
