<svg width="65" height="65" viewBox="0 0 65 65" fill="none" xmlns="http://www.w3.org/2000/svg">
<path d="M22.8709 15.272C23.2652 14.917 23.5023 14.4198 23.53 13.89C23.5578 13.3601 23.3739 12.841 23.0189 12.4467C22.6638 12.0524 22.1667 11.8153 21.6369 11.7875C21.107 11.7598 20.5878 11.9436 20.1935 12.2987L15.5615 16.4693C13.5962 18.2373 11.9695 19.7013 10.8495 21.0293C9.6762 22.4293 8.83887 23.9307 8.83887 25.7867C8.83887 27.64 9.67353 29.1413 10.8495 30.5387C11.9695 31.8693 13.5962 33.336 15.5615 35.1013L20.1935 39.272C20.3888 39.4478 20.6167 39.5834 20.8644 39.6711C21.112 39.7588 21.3745 39.7969 21.6369 39.7832C21.8992 39.7694 22.1563 39.7041 22.3934 39.591C22.6305 39.4779 22.8431 39.3192 23.0189 39.124C23.1947 38.9288 23.3303 38.7008 23.418 38.4532C23.5057 38.2055 23.5438 37.943 23.53 37.6807C23.5163 37.4183 23.451 37.1613 23.3379 36.9241C23.2248 36.687 23.0661 36.4745 22.8709 36.2987L18.3455 32.2267C16.2442 30.336 14.8282 29.0533 13.9109 27.9653C13.0309 26.9173 12.8389 26.3067 12.8389 25.7867C12.8389 25.264 13.0309 24.6533 13.9109 23.6053C14.8282 22.5147 16.2442 21.2347 18.3455 19.344L22.8709 15.272ZM38.0122 12.3067C38.2661 12.3742 38.5043 12.4911 38.713 12.6507C38.9218 12.8102 39.097 13.0094 39.2288 13.2367C39.3605 13.4641 39.4462 13.7151 39.4809 13.9756C39.5155 14.236 39.4985 14.5008 39.4309 14.7547L28.7989 54.7547C28.7313 55.0086 28.6143 55.2467 28.4547 55.4553C28.2951 55.664 28.096 55.8393 27.8687 55.971C27.6414 56.1027 27.3903 56.1884 27.1299 56.2231C26.8695 56.2578 26.6048 56.2409 26.3509 56.1733C26.097 56.1058 25.8589 55.9888 25.6502 55.8292C25.4415 55.6696 25.2663 55.4705 25.1345 55.2432C25.0028 55.0158 24.9171 54.7648 24.8824 54.5044C24.8477 54.2439 24.8646 53.9792 24.9322 53.7253L35.5642 13.7253C35.6317 13.4714 35.7486 13.2333 35.9082 13.0245C36.0678 12.8158 36.2669 12.6405 36.4942 12.5088C36.7216 12.377 36.9727 12.2914 37.2331 12.2567C37.4936 12.222 37.7583 12.239 38.0122 12.3067ZM41.3802 28.9013C41.7353 28.5075 42.2323 28.2708 42.7618 28.2433C43.2914 28.2158 43.8102 28.3997 44.2042 28.7547L48.8362 32.9227C50.8015 34.6907 52.4282 36.1573 53.5482 37.4853C54.7215 38.8827 55.5589 40.3867 55.5589 42.24C55.5589 44.0933 54.7242 45.5973 53.5482 46.9947C52.4282 48.3227 50.8015 49.7893 48.8362 51.5547L44.2042 55.728C44.0088 55.9038 43.7807 56.0394 43.5329 56.127C43.2851 56.2147 43.0224 56.2526 42.7599 56.2388C42.4975 56.2249 42.2403 56.1595 42.0031 56.0462C41.7659 55.9329 41.5533 55.7741 41.3775 55.5787C41.2017 55.3833 41.0662 55.1551 40.9785 54.9073C40.8909 54.6595 40.8529 54.3969 40.8668 54.1344C40.8806 53.8719 40.9461 53.6148 41.0593 53.3776C41.1726 53.1404 41.3315 52.9278 41.5269 52.752L46.0522 48.6827C48.1535 46.7893 49.5695 45.5093 50.4869 44.4187C51.3669 43.3733 51.5589 42.76 51.5589 42.24C51.5589 41.72 51.3669 41.1067 50.4869 40.0613C49.5695 38.968 48.1535 37.688 46.0522 35.7973L41.5269 31.7253C41.133 31.3702 40.8964 30.8733 40.8688 30.3437C40.8413 29.8141 41.0253 29.2953 41.3802 28.9013Z" fill="#2B3674"/>
</svg>
