<svg width="17" height="17" viewBox="0 0 17 17" fill="none" xmlns="http://www.w3.org/2000/svg">
<path d="M6.26513 12.6139L10.2625 3.27788C10.3296 3.12195 10.4538 2.99752 10.6096 2.93C10.7654 2.86248 10.9411 2.85694 11.1008 2.91452C11.2605 2.9721 11.3923 3.08846 11.4691 3.23986C11.546 3.39126 11.5622 3.56628 11.5145 3.72922L11.4878 3.80255L7.49046 13.1386C7.42327 13.2945 7.29912 13.4189 7.14333 13.4864C6.98754 13.554 6.81185 13.5595 6.65212 13.5019C6.49239 13.4443 6.36065 13.328 6.28378 13.1766C6.2069 13.0252 6.1907 12.8502 6.23846 12.6872L6.26513 12.6139ZM2.40313 7.73522L5.06979 5.06855C5.18977 4.94899 5.35075 4.87957 5.52005 4.8744C5.68935 4.86923 5.85427 4.92869 5.98131 5.04072C6.10836 5.15274 6.188 5.30892 6.20406 5.47753C6.22012 5.64615 6.1714 5.81456 6.06779 5.94855L6.01246 6.01122L3.81713 8.20655L6.01246 10.4019C6.1333 10.5216 6.20381 10.6829 6.20958 10.8529C6.21535 11.0229 6.15593 11.1887 6.04348 11.3163C5.93104 11.4439 5.77407 11.5237 5.60471 11.5394C5.43535 11.555 5.26641 11.5054 5.13246 11.4006L5.06979 11.3446L2.40313 8.67788C2.28834 8.56309 2.21939 8.41036 2.2092 8.24834C2.19901 8.08632 2.24829 7.92615 2.34779 7.79788L2.40313 7.73522ZM11.7365 5.06788C11.8513 4.9531 12.004 4.88415 12.166 4.87396C12.328 4.86377 12.4882 4.91305 12.6165 5.01255L12.6785 5.06788L15.3458 7.73522C15.4606 7.85001 15.5295 8.00275 15.5397 8.16476C15.5499 8.32678 15.5006 8.48695 15.4011 8.61522L15.3458 8.67855L12.6785 11.3419C12.5585 11.4614 12.3975 11.5309 12.2282 11.536C12.0589 11.5412 11.894 11.4817 11.7669 11.3697C11.6399 11.2577 11.5603 11.1015 11.5442 10.9329C11.5281 10.7643 11.5769 10.5959 11.6805 10.4619L11.7365 10.3986L13.9311 8.20655L11.7358 6.01055C11.6108 5.88553 11.5406 5.71599 11.5406 5.53922C11.5406 5.36244 11.6115 5.1929 11.7365 5.06788Z" fill="#7482AE"/>
</svg>
