<svg width="11" height="12" viewBox="0 0 11 12" fill="none" xmlns="http://www.w3.org/2000/svg">
<path d="M9.67192 1.19768H9.13832V0.664087C9.13832 0.37061 8.89821 0.130493 8.60473 0.130493C8.31125 0.130493 8.07114 0.37061 8.07114 0.664087V1.19768H2.7352V0.664087C2.7352 0.37061 2.49508 0.130493 2.20161 0.130493C1.90813 0.130493 1.66801 0.37061 1.66801 0.664087V1.19768H1.13442C0.547465 1.19768 0.0672302 1.67791 0.0672302 2.26487V10.8024C0.0672302 11.3893 0.547465 11.8696 1.13442 11.8696H9.67192C10.2589 11.8696 10.7391 11.3893 10.7391 10.8024V2.26487C10.7391 1.67791 10.2589 1.19768 9.67192 1.19768ZM9.13832 10.8024H1.66801C1.37453 10.8024 1.13442 10.5623 1.13442 10.2688V3.86565H9.67192V10.2688C9.67192 10.5623 9.4318 10.8024 9.13832 10.8024Z" fill="#7482AE"/>
</svg>
