<svg width="17" height="17" viewBox="0 0 17 17" fill="none" xmlns="http://www.w3.org/2000/svg">
<g clip-path="url(#clip0_0_929)">
<path d="M12.2633 8.20654C12.7448 8.20654 13.2216 8.1117 13.6665 7.92744C14.1113 7.74317 14.5155 7.47308 14.856 7.1326C15.1965 6.79212 15.4666 6.38791 15.6509 5.94305C15.8351 5.49819 15.93 5.02139 15.93 4.53988C15.93 4.05836 15.8351 3.58157 15.6509 3.1367C15.4666 2.69184 15.1965 2.28763 14.856 1.94715C14.5155 1.60667 14.1113 1.33659 13.6665 1.15232C13.2216 0.968052 12.7448 0.873211 12.2633 0.873211C11.2908 0.873211 10.3582 1.25952 9.67057 1.94715C8.98294 2.63479 8.59663 3.56742 8.59663 4.53988C8.59663 5.51234 8.98294 6.44497 9.67057 7.1326C10.3582 7.82024 11.2908 8.20654 12.2633 8.20654ZM11.166 3.44254L10.068 4.53988L11.166 5.63721C11.2286 5.6998 11.2637 5.78469 11.2637 5.87321C11.2637 5.96173 11.2286 6.04662 11.166 6.10921C11.1034 6.1718 11.0185 6.20696 10.93 6.20696C10.8414 6.20696 10.7566 6.1718 10.694 6.10921L9.36063 4.77588C9.32959 4.74491 9.30496 4.70813 9.28815 4.66763C9.27135 4.62714 9.2627 4.58372 9.2627 4.53988C9.2627 4.49603 9.27135 4.45262 9.28815 4.41212C9.30496 4.37162 9.32959 4.33484 9.36063 4.30388L10.694 2.97054C10.7566 2.90795 10.8414 2.87279 10.93 2.87279C11.0185 2.87279 11.1034 2.90795 11.166 2.97054C11.2286 3.03314 11.2637 3.11803 11.2637 3.20654C11.2637 3.29506 11.2286 3.37995 11.166 3.44254ZM13.166 2.97054C13.197 3.00151 13.2216 3.03829 13.2384 3.07879C13.2552 3.11929 13.2639 3.1627 13.2639 3.20654C13.2639 3.25039 13.2552 3.2938 13.2384 3.3343C13.2216 3.3748 13.197 3.41158 13.166 3.44254L12.4013 4.20654H13.93C14.1952 4.20654 14.4495 4.3119 14.6371 4.49944C14.8246 4.68697 14.93 4.94133 14.93 5.20654V5.53988C14.93 5.62828 14.8948 5.71307 14.8323 5.77558C14.7698 5.83809 14.685 5.87321 14.5966 5.87321C14.5082 5.87321 14.4234 5.83809 14.3609 5.77558C14.2984 5.71307 14.2633 5.62828 14.2633 5.53988V5.20654C14.2633 5.11814 14.2282 5.03335 14.1657 4.97084C14.1032 4.90833 14.0184 4.87321 13.93 4.87321H12.4013L13.166 5.63721C13.2286 5.6998 13.2637 5.78469 13.2637 5.87321C13.2637 5.96173 13.2286 6.04662 13.166 6.10921C13.1034 6.1718 13.0185 6.20696 12.93 6.20696C12.8414 6.20696 12.7566 6.1718 12.694 6.10921L11.3606 4.77588C11.3296 4.74491 11.305 4.70813 11.2882 4.66763C11.2713 4.62714 11.2627 4.58372 11.2627 4.53988C11.2627 4.49603 11.2713 4.45262 11.2882 4.41212C11.305 4.37162 11.3296 4.33484 11.3606 4.30388L12.694 2.97054C12.7249 2.9395 12.7617 2.91487 12.8022 2.89807C12.8427 2.88126 12.8861 2.87261 12.93 2.87261C12.9738 2.87261 13.0172 2.88126 13.0577 2.89807C13.0982 2.91487 13.135 2.9395 13.166 2.97054ZM12.2633 8.87321C13.3818 8.87466 14.4573 8.44209 15.2633 7.66654V11.3732C15.2633 11.9266 15.0516 12.4591 14.6715 12.8614C14.2914 13.2636 13.7718 13.5052 13.2193 13.5365L13.0966 13.5399H4.09663C3.5432 13.5399 3.01074 13.3282 2.60847 12.9481C2.20621 12.568 1.96463 12.0484 1.9333 11.4959L1.92996 11.3732V5.94521L8.36463 9.31588C8.43621 9.35337 8.51582 9.37296 8.59663 9.37296C8.67744 9.37296 8.75704 9.35337 8.82863 9.31588L10.44 8.47188C11.0112 8.73702 11.6335 8.874 12.2633 8.87321ZM4.09663 2.87321H8.26196C8.04202 3.4013 7.92917 3.96782 7.92996 4.53988C7.92996 5.86854 8.52796 7.05721 9.46863 7.85188L8.59663 8.30854L1.94063 4.82188C1.99246 4.30887 2.22554 3.83117 2.598 3.4746C2.97045 3.11803 3.45785 2.90598 3.97263 2.87654L4.09663 2.87321Z" fill="#7482AE"/>
</g>
<defs>
<clipPath id="clip0_0_929">
<rect width="16" height="16" fill="white" transform="translate(0.596619 0.206543)"/>
</clipPath>
</defs>
</svg>
