<svg width="17" height="17" viewBox="0 0 17 17" fill="none" xmlns="http://www.w3.org/2000/svg">
<path d="M6.8193 1.53988C6.50597 1.53988 6.1993 1.57121 5.90197 1.62988C5.80455 1.64925 5.71512 1.6972 5.64506 1.76761C5.57501 1.83802 5.52751 1.9277 5.50863 2.02521L5.26863 3.26454C5.26411 3.28799 5.25461 3.31019 5.24076 3.32964C5.22692 3.34909 5.20905 3.36534 5.18838 3.37728C5.16771 3.38923 5.14471 3.3966 5.12095 3.39889C5.09718 3.40117 5.0732 3.39833 5.05063 3.39054L3.8573 2.97854C3.76362 2.94603 3.66238 2.94211 3.56647 2.96727C3.47055 2.99244 3.38428 3.04556 3.31863 3.11988C2.90838 3.58462 2.59493 4.12653 2.39663 4.71388C2.36481 4.80791 2.3617 4.9093 2.3877 5.00511C2.4137 5.10092 2.46763 5.18683 2.54263 5.25188L3.4973 6.07988C3.51537 6.09552 3.52986 6.11487 3.5398 6.13661C3.54973 6.15835 3.55487 6.18197 3.55487 6.20588C3.55487 6.22978 3.54973 6.2534 3.5398 6.27514C3.52986 6.29688 3.51537 6.31623 3.4973 6.33188L2.54263 7.16054C2.46765 7.22546 2.41367 7.31121 2.38755 7.4069C2.36143 7.50258 2.36436 7.60386 2.39597 7.69788C2.59446 8.28528 2.90814 8.82719 3.31863 9.29188C3.38415 9.36618 3.47027 9.41935 3.56605 9.44463C3.66184 9.46991 3.76298 9.46617 3.85663 9.43388L5.05063 9.02188C5.0732 9.01409 5.09718 9.01124 5.12095 9.01353C5.14471 9.01582 5.16771 9.02319 5.18838 9.03513C5.20905 9.04708 5.22692 9.06333 5.24076 9.08278C5.25461 9.10223 5.26411 9.12443 5.26863 9.14788L5.50863 10.3872C5.52751 10.4847 5.57501 10.5744 5.64506 10.6448C5.71512 10.7152 5.80455 10.7632 5.90197 10.7825C6.50979 10.9039 7.13565 10.9034 7.7433 10.7812C7.84047 10.7616 7.92961 10.7135 7.99941 10.6431C8.06921 10.5728 8.11651 10.4832 8.1353 10.3859L8.3753 9.14788C8.37974 9.12437 8.38918 9.1021 8.40299 9.08257C8.41681 9.06304 8.43466 9.04672 8.45534 9.0347C8.47602 9.02268 8.49904 9.01526 8.52285 9.01293C8.54665 9.0106 8.57068 9.01343 8.5933 9.02121L9.7833 9.43254C9.87695 9.46483 9.97809 9.46858 10.0739 9.44329C10.1697 9.41801 10.2558 9.36485 10.3213 9.29054C10.7321 8.82504 11.0458 8.28221 11.244 7.69388C11.2754 7.59995 11.2783 7.49881 11.2522 7.40326C11.2261 7.30771 11.1722 7.22208 11.0973 7.15721L10.1466 6.33188C10.1286 6.31623 10.1141 6.29688 10.1041 6.27514C10.0942 6.2534 10.0891 6.22978 10.0891 6.20588C10.0891 6.18197 10.0942 6.15835 10.1041 6.13661C10.1141 6.11487 10.1286 6.09552 10.1466 6.07988L11.0973 5.25454C11.1723 5.18962 11.2263 5.10387 11.2524 5.00819C11.2785 4.91251 11.2756 4.81122 11.244 4.71721C11.0458 4.12908 10.7321 3.58646 10.3213 3.12121C10.2557 3.04678 10.1695 2.99353 10.0736 2.96824C9.97765 2.94296 9.87638 2.94677 9.78263 2.97921L8.5933 3.38988C8.57068 3.39766 8.54665 3.40048 8.52285 3.39815C8.49904 3.39583 8.47602 3.3884 8.45534 3.37638C8.43466 3.36437 8.41681 3.34804 8.40299 3.32851C8.38918 3.30898 8.37974 3.28671 8.3753 3.26321L8.1353 2.02588C8.11651 1.92854 8.06921 1.83899 7.99941 1.7686C7.92961 1.69821 7.84047 1.65016 7.7433 1.63054C7.43906 1.56981 7.12954 1.53944 6.8193 1.53988ZM5.6533 6.20654C5.6533 5.89712 5.77622 5.60038 5.99501 5.38158C6.2138 5.16279 6.51055 5.03988 6.81997 5.03988C7.12938 5.03988 7.42613 5.16279 7.64492 5.38158C7.86372 5.60038 7.98663 5.89712 7.98663 6.20654C7.98663 6.51596 7.86372 6.81271 7.64492 7.0315C7.42613 7.25029 7.12938 7.37321 6.81997 7.37321C6.51055 7.37321 6.2138 7.25029 5.99501 7.0315C5.77622 6.81271 5.6533 6.51596 5.6533 6.20654ZM9.75997 10.0625C9.80072 10.0107 9.85688 9.97302 9.92036 9.95506C9.98385 9.93709 10.0514 9.93971 10.1133 9.96254L10.9526 10.2525C10.9937 10.2668 11.0374 10.2721 11.0806 10.2679C11.1239 10.2638 11.1658 10.2504 11.2035 10.2287C11.2411 10.2069 11.2736 10.1773 11.2988 10.1418C11.3239 10.1064 11.3412 10.0659 11.3493 10.0232L11.518 9.15121C11.5292 9.08625 11.5607 9.02653 11.608 8.98065C11.6554 8.93476 11.716 8.90508 11.7813 8.89588C12.0279 8.86536 12.2773 8.86536 12.524 8.89588C12.5892 8.90508 12.6499 8.93476 12.6972 8.98065C12.7445 9.02653 12.7761 9.08625 12.7873 9.15121L12.956 10.0232C12.9642 10.0659 12.9815 10.1063 13.0067 10.1417C13.0319 10.177 13.0644 10.2066 13.102 10.2284C13.1396 10.2501 13.1814 10.2635 13.2247 10.2677C13.2679 10.2719 13.3116 10.2667 13.3526 10.2525L14.1926 9.96254C14.2544 9.94002 14.3216 9.93756 14.3848 9.95552C14.448 9.97348 14.504 10.0109 14.5446 10.0625C14.694 10.2592 14.8193 10.4759 14.9173 10.7059C14.97 10.8305 14.93 10.9725 14.828 11.0612L14.156 11.6445C14.1233 11.673 14.0971 11.7082 14.0792 11.7476C14.0612 11.787 14.0519 11.8299 14.0519 11.8732C14.0519 11.9165 14.0612 11.9594 14.0792 11.9988C14.0971 12.0383 14.1233 12.0734 14.156 12.1019L14.828 12.6845C14.8785 12.7267 14.9144 12.7838 14.9304 12.8477C14.9465 12.9115 14.9419 12.9788 14.9173 13.0399C14.82 13.2705 14.694 13.4865 14.5446 13.6839C14.504 13.7355 14.448 13.7729 14.3848 13.7909C14.3216 13.8089 14.2544 13.8064 14.1926 13.7839L13.3526 13.4939C13.3116 13.4797 13.268 13.4745 13.2248 13.4787C13.1816 13.4828 13.1398 13.4961 13.1022 13.5178C13.0646 13.5395 13.0321 13.569 13.0069 13.6043C12.9816 13.6396 12.9643 13.6799 12.956 13.7225L12.7873 14.5952C12.7761 14.6602 12.7445 14.7199 12.6972 14.7658C12.6499 14.8117 12.5892 14.8413 12.524 14.8505C12.2774 14.8811 12.0279 14.8811 11.7813 14.8505C11.716 14.8413 11.6554 14.8117 11.608 14.7658C11.5607 14.7199 11.5292 14.6602 11.518 14.5952L11.3493 13.7225C11.3411 13.6799 11.3238 13.6395 11.2986 13.6041C11.2734 13.5688 11.2409 13.5392 11.2032 13.5175C11.1656 13.4958 11.1238 13.4825 11.0805 13.4784C11.0373 13.4743 10.9937 13.4796 10.9526 13.4939L10.1126 13.7839C10.0509 13.8064 9.98364 13.8089 9.92043 13.7909C9.85722 13.7729 9.8013 13.7355 9.76063 13.6839C9.61013 13.4855 9.48494 13.2692 9.38797 13.0399C9.36338 12.9788 9.35878 12.9115 9.37483 12.8477C9.39088 12.7838 9.42675 12.7267 9.4773 12.6845L10.1493 12.1019C10.182 12.0734 10.2082 12.0383 10.2261 11.9988C10.244 11.9594 10.2533 11.9165 10.2533 11.8732C10.2533 11.8299 10.244 11.787 10.2261 11.7476C10.2082 11.7082 10.182 11.673 10.1493 11.6445L9.47797 11.0612C9.42731 11.0191 9.3913 10.962 9.37513 10.8982C9.35896 10.8343 9.36345 10.767 9.38797 10.7059C9.4853 10.4752 9.61063 10.2592 9.75997 10.0625ZM12.9873 11.8732C12.9873 11.7637 12.9657 11.6552 12.9238 11.5541C12.8819 11.4529 12.8205 11.3609 12.743 11.2835C12.6656 11.206 12.5736 11.1446 12.4725 11.1027C12.3713 11.0608 12.2628 11.0392 12.1533 11.0392C12.0438 11.0392 11.9353 11.0608 11.8341 11.1027C11.733 11.1446 11.641 11.206 11.5636 11.2835C11.4861 11.3609 11.4247 11.4529 11.3828 11.5541C11.3409 11.6552 11.3193 11.7637 11.3193 11.8732C11.3193 12.0943 11.4071 12.3064 11.5635 12.4627C11.7198 12.619 11.9319 12.7069 12.153 12.7069C12.3741 12.7069 12.5861 12.619 12.7425 12.4627C12.8988 12.3064 12.9866 12.0943 12.9866 11.8732" fill="#7482AE"/>
</svg>
