<svg width="18" height="18" viewBox="0 0 18 18" fill="none" xmlns="http://www.w3.org/2000/svg">
<g clip-path="url(#clip0_0_926)">
<path d="M7.35666 13.5177V9.9604H10.2025V13.5177C10.2025 13.909 10.5226 14.2291 10.914 14.2291H13.0483C13.4396 14.2291 13.7598 13.909 13.7598 13.5177V8.53748H14.9693C15.2965 8.53748 15.4531 8.13195 15.204 7.91851L9.25625 2.56123C8.9859 2.31933 8.57325 2.31933 8.3029 2.56123L2.35511 7.91851C2.11321 8.13195 2.26262 8.53748 2.58989 8.53748H3.79937V13.5177C3.79937 13.909 4.11952 14.2291 4.51083 14.2291H6.6452C7.0365 14.2291 7.35666 13.909 7.35666 13.5177Z" fill="#7482AE"/>
</g>
<defs>
<clipPath id="clip0_0_926">
<rect width="17.075" height="17.075" fill="white" transform="translate(0.242126)"/>
</clipPath>
</defs>
</svg>
