<svg width="16" height="17" viewBox="0 0 16 17" fill="none" xmlns="http://www.w3.org/2000/svg">
<g clip-path="url(#clip0_130_21)">
<path d="M8.00006 0.230225C3.58406 0.230225 6.10352e-05 3.81422 6.10352e-05 8.23022C6.10352e-05 12.6462 3.58406 16.2302 8.00006 16.2302C12.4161 16.2302 16.0001 12.6462 16.0001 8.23022C16.0001 3.81422 12.4161 0.230225 8.00006 0.230225ZM5.83206 11.6622L2.96006 8.79023C2.64806 8.47822 2.64806 7.97422 2.96006 7.66222C3.27206 7.35022 3.77606 7.35022 4.08806 7.66222L6.40006 9.96622L11.9041 4.46222C12.2161 4.15022 12.7201 4.15022 13.0321 4.46222C13.3441 4.77422 13.3441 5.27822 13.0321 5.59022L6.96006 11.6622C6.65606 11.9742 6.14406 11.9742 5.83206 11.6622Z" fill="#05CD99"/>
</g>
<defs>
<clipPath id="clip0_130_21">
<rect width="16" height="16" fill="white" transform="translate(6.10352e-05 0.230225)"/>
</clipPath>
</defs>
</svg>
