<svg width="17" height="17" viewBox="0 0 17 17" fill="none" xmlns="http://www.w3.org/2000/svg">
<g clip-path="url(#clip0_0_931)">
<path d="M13.5964 9.20654C13.5964 8.75321 13.7784 8.34121 14.073 8.03988H9.59637C9.28695 8.03988 8.99021 7.91696 8.77141 7.69817C8.55262 7.47938 8.42971 7.18263 8.42971 6.87321V1.54321C6.79467 1.58743 5.24015 2.26249 4.09163 3.42704C2.94311 4.5916 2.28967 6.15534 2.26813 7.79083C2.24659 9.42632 2.85862 11.0067 3.97607 12.2011C5.09353 13.3955 6.62974 14.1113 8.26304 14.1985V13.2065C8.26304 12.897 8.34923 12.5936 8.51195 12.3303C8.67468 12.067 8.90751 11.8543 9.18435 11.7158C9.46119 11.5774 9.77111 11.5188 10.0794 11.5466C10.3877 11.5744 10.6821 11.6875 10.9297 11.8732V11.2065C10.9297 10.897 11.0159 10.5936 11.1786 10.3303C11.3413 10.067 11.5742 9.85425 11.851 9.71583C12.1279 9.57741 12.4378 9.51881 12.746 9.54661C13.0543 9.57441 13.3488 9.6875 13.5964 9.87321V9.20654ZM9.42971 1.59521V6.87454C9.42971 6.96654 9.50437 7.04121 9.59637 7.04121H14.8757C14.6922 5.6613 14.0594 4.38021 13.075 3.39587C12.0907 2.41153 10.8096 1.77873 9.42971 1.59521ZM15.263 8.20788C14.9978 8.20788 14.7435 8.31323 14.5559 8.50077C14.3684 8.68831 14.263 8.94266 14.263 9.20788V14.5412C14.263 14.8064 14.3684 15.0608 14.5559 15.2483C14.7435 15.4359 14.9978 15.5412 15.263 15.5412C15.5283 15.5412 15.7826 15.4359 15.9701 15.2483C16.1577 15.0608 16.263 14.8064 16.263 14.5412V9.20788C16.263 8.94266 16.1577 8.68831 15.9701 8.50077C15.7826 8.31323 15.5283 8.20788 15.263 8.20788ZM9.92971 12.2079C9.66449 12.2079 9.41014 12.3132 9.2226 12.5008C9.03506 12.6883 8.92971 12.9427 8.92971 13.2079V14.5412C8.92971 14.8064 9.03506 15.0608 9.2226 15.2483C9.41014 15.4359 9.66449 15.5412 9.92971 15.5412C10.1949 15.5412 10.4493 15.4359 10.6368 15.2483C10.8243 15.0608 10.9297 14.8064 10.9297 14.5412V13.2079C10.9297 12.9427 10.8243 12.6883 10.6368 12.5008C10.4493 12.3132 10.1949 12.2079 9.92971 12.2079ZM11.5964 11.2079C11.5964 10.9427 11.7017 10.6883 11.8893 10.5008C12.0768 10.3132 12.3312 10.2079 12.5964 10.2079C12.8616 10.2079 13.1159 10.3132 13.3035 10.5008C13.491 10.6883 13.5964 10.9427 13.5964 11.2079V14.5412C13.5964 14.8064 13.491 15.0608 13.3035 15.2483C13.1159 15.4359 12.8616 15.5412 12.5964 15.5412C12.3312 15.5412 12.0768 15.4359 11.8893 15.2483C11.7017 15.0608 11.5964 14.8064 11.5964 14.5412V11.2079Z" fill="#7482AE"/>
</g>
<defs>
<clipPath id="clip0_0_931">
<rect width="16" height="16" fill="white" transform="translate(0.929626 0.206543)"/>
</clipPath>
</defs>
</svg>
