<svg width="17" height="17" viewBox="0 0 17 17" fill="none" xmlns="http://www.w3.org/2000/svg">
<g clip-path="url(#clip0_0_933)">
<path d="M8.87446 4.87321C8.87446 5.58045 8.59351 6.25873 8.09341 6.75883C7.59332 7.25892 6.91504 7.53988 6.20779 7.53988C5.50055 7.53988 4.82227 7.25892 4.32218 6.75883C3.82208 6.25873 3.54113 5.58045 3.54113 4.87321C3.54113 4.16597 3.82208 3.48769 4.32218 2.98759C4.82227 2.48749 5.50055 2.20654 6.20779 2.20654C6.91504 2.20654 7.59332 2.48749 8.09341 2.98759C8.59351 3.48769 8.87446 4.16597 8.87446 4.87321ZM14.2078 5.53988C14.2078 6.07031 13.9971 6.57902 13.622 6.95409C13.2469 7.32916 12.7382 7.53988 12.2078 7.53988C11.6774 7.53988 11.1687 7.32916 10.7936 6.95409C10.4185 6.57902 10.2078 6.07031 10.2078 5.53988C10.2078 5.00944 10.4185 4.50074 10.7936 4.12566C11.1687 3.75059 11.6774 3.53988 12.2078 3.53988C12.7382 3.53988 13.2469 3.75059 13.622 4.12566C13.9971 4.50074 14.2078 5.00944 14.2078 5.53988ZM2.20779 10.3732C2.20779 9.97539 2.36583 9.59385 2.64713 9.31255C2.92844 9.03125 3.30997 8.87321 3.70779 8.87321H8.70779C8.91846 8.87321 9.11913 8.91654 9.30113 8.99521C8.59534 9.78756 8.20612 10.8121 8.20779 11.8732C8.20738 12.2994 8.26983 12.7233 8.39313 13.1312C7.84646 13.3799 7.13446 13.5399 6.20779 13.5399C2.20779 13.5399 2.20779 10.5399 2.20779 10.5399V10.3732ZM12.5418 15.5412C13.3464 15.541 14.1285 15.2763 14.7678 14.7877C15.407 14.2992 15.8679 13.614 16.0793 12.8377C16.2908 12.0614 16.2411 11.2371 15.9379 10.4919C15.6347 9.74662 15.0948 9.12176 14.4015 8.71357C13.7082 8.30538 12.8999 8.13652 12.1011 8.23301C11.3023 8.3295 10.5575 8.68599 9.9813 9.24753C9.40512 9.80908 9.02959 10.5445 8.91258 11.3405C8.79557 12.1365 8.94358 12.9489 9.33379 13.6525L8.88979 15.1099C8.87203 15.1677 8.87034 15.2293 8.88492 15.288C8.8995 15.3468 8.92979 15.4004 8.97255 15.4433C9.0153 15.4861 9.06891 15.5165 9.12762 15.5311C9.18632 15.5458 9.24792 15.5442 9.30579 15.5265L10.7638 15.0825C11.2905 15.3752 11.8971 15.5412 12.5418 15.5412ZM11.2085 11.5412C11.12 11.5412 11.0351 11.5061 10.9725 11.4435C10.9099 11.3809 10.8748 11.296 10.8748 11.2075C10.8748 11.119 10.9099 11.0342 10.9725 10.9716C11.0351 10.909 11.12 10.8739 11.2085 10.8739H13.8751C13.9635 10.8739 14.0483 10.909 14.1108 10.9715C14.1733 11.034 14.2085 11.1188 14.2085 11.2072C14.2085 11.2956 14.1733 11.3804 14.1108 11.4429C14.0483 11.5054 13.9635 11.5405 13.8751 11.5405L11.2085 11.5412ZM12.5418 12.8745H11.2085C11.1201 12.8745 11.0353 12.8394 10.9728 12.7769C10.9102 12.7144 10.8751 12.6296 10.8751 12.5412C10.8751 12.4528 10.9102 12.368 10.9728 12.3055C11.0353 12.243 11.1201 12.2079 11.2085 12.2079H12.5418C12.6302 12.2079 12.715 12.243 12.7775 12.3055C12.84 12.368 12.8751 12.4528 12.8751 12.5412C12.8751 12.6296 12.84 12.7144 12.7775 12.7769C12.715 12.8394 12.6302 12.8745 12.5418 12.8745Z" fill="#7482AE"/>
</g>
<defs>
<clipPath id="clip0_0_933">
<rect width="16" height="16" fill="white" transform="translate(0.874451 0.206543)"/>
</clipPath>
</defs>
</svg>
