<svg width="13" height="9" viewBox="0 0 13 9" fill="none" xmlns="http://www.w3.org/2000/svg">
<path d="M0.685282 8.25H11.3519C11.7186 8.25 12.0186 7.95 12.0186 7.58333C12.0186 7.21667 11.7186 6.91667 11.3519 6.91667H0.685282C0.318616 6.91667 0.0186157 7.21667 0.0186157 7.58333C0.0186157 7.95 0.318616 8.25 0.685282 8.25ZM0.685282 4.91667H11.3519C11.7186 4.91667 12.0186 4.61667 12.0186 4.25C12.0186 3.88333 11.7186 3.58333 11.3519 3.58333H0.685282C0.318616 3.58333 0.0186157 3.88333 0.0186157 4.25C0.0186157 4.61667 0.318616 4.91667 0.685282 4.91667ZM0.0186157 0.916667C0.0186157 1.28333 0.318616 1.58333 0.685282 1.58333H11.3519C11.7186 1.58333 12.0186 1.28333 12.0186 0.916667C12.0186 0.55 11.7186 0.25 11.3519 0.25H0.685282C0.318616 0.25 0.0186157 0.55 0.0186157 0.916667Z" fill="#757575"/>
</svg>
