<svg width="21" height="22" viewBox="0 0 21 22" fill="none" xmlns="http://www.w3.org/2000/svg">
<g clip-path="url(#clip0_0_907)">
<path d="M12.1264 18.7646L12.5781 18.0013L11.5031 17.3646L11.0506 18.1279L12.1264 18.7646ZM8.78811 18.0013L9.23978 18.7646L10.3148 18.1279L9.86394 17.3646L8.78811 18.0013ZM11.0506 18.1279C11.0117 18.1903 10.9575 18.2417 10.8932 18.2773C10.8289 18.313 10.7566 18.3317 10.6831 18.3317C10.6096 18.3317 10.5373 18.313 10.473 18.2773C10.4087 18.2417 10.3546 18.1903 10.3156 18.1279L9.23978 18.7646C9.88394 19.8538 11.4814 19.8538 12.1264 18.7646L11.0514 18.1279H11.0506ZM9.43311 2.91461H11.9331V1.66461H9.43311V2.91461ZM18.3914 9.37294V10.2063H19.6414V9.37294H18.3914ZM2.97478 10.2063V9.37294H1.72478V10.2063H2.97478ZM1.72478 10.2063C1.72478 11.1688 1.72478 11.9213 1.76644 12.5288C1.80811 13.1413 1.89394 13.6513 2.08978 14.1229L3.24478 13.6446C3.12228 13.3513 3.05061 12.9929 3.01311 12.4438C2.97478 11.8888 2.97478 11.1854 2.97478 10.2063H1.72478ZM7.18561 15.8246C6.13894 15.8063 5.59061 15.7396 5.16061 15.5613L4.68311 16.7163C5.35394 16.9946 6.11728 17.0571 7.16394 17.0754L7.18561 15.8246ZM2.08978 14.1229C2.33058 14.7043 2.68354 15.2326 3.12851 15.6775C3.57348 16.1225 4.10173 16.4755 4.68311 16.7163L5.16061 15.5613C4.29284 15.2018 3.60423 14.5124 3.24478 13.6446L2.08978 14.1229ZM18.3914 10.2063C18.3914 11.1854 18.3914 11.8888 18.3531 12.4438C18.3156 12.9929 18.2439 13.3513 18.1223 13.6446L19.2764 14.1229C19.4723 13.6513 19.5581 13.1413 19.6006 12.5288C19.6423 11.9213 19.6414 11.1688 19.6414 10.2063H18.3914ZM14.2023 17.0738C15.2489 17.0563 16.0123 16.9946 16.6831 16.7163L16.2048 15.5613C15.7756 15.7396 15.2273 15.8063 14.1814 15.8246L14.2023 17.0746V17.0738ZM18.1223 13.6446C17.7628 14.5124 17.0734 15.2018 16.2056 15.5613L16.6831 16.7163C17.2645 16.4755 17.7927 16.1225 18.2377 15.6775C18.6827 15.2326 19.0356 14.7043 19.2764 14.1229L18.1223 13.6446ZM11.9331 2.91461C13.3089 2.91461 14.2973 2.91461 15.0681 2.98878C15.8298 3.06128 16.3139 3.19961 16.7006 3.43628L17.3531 2.37045C16.7373 1.99378 16.0389 1.82545 15.1864 1.74378C14.3431 1.66378 13.2848 1.66461 11.9331 1.66461V2.91461ZM19.6414 9.37294C19.6414 8.02128 19.6414 6.96378 19.5614 6.11961C19.4806 5.26711 19.3123 4.56795 18.9356 3.95295L17.8689 4.60545C18.1064 4.99211 18.2448 5.47628 18.3173 6.23878C18.3906 7.00878 18.3914 7.99711 18.3914 9.37294H19.6414ZM16.6998 3.43628C17.1766 3.72819 17.5775 4.12884 17.8698 4.60545L18.9356 3.95295C18.5404 3.30793 17.9981 2.76564 17.3531 2.37045L16.7006 3.43711L16.6998 3.43628ZM9.43311 1.66461C8.08144 1.66461 7.02394 1.66461 6.17978 1.74378C5.32728 1.82545 4.62811 1.99378 4.01311 2.37045L4.66561 3.43711C5.05228 3.19961 5.53644 3.06128 6.29894 2.98878C7.06894 2.91545 8.05728 2.91461 9.43311 2.91461V1.66461ZM2.97478 9.37294C2.97478 7.99711 2.97478 7.00878 3.04894 6.23795C3.12144 5.47628 3.25978 4.99211 3.49644 4.60545L2.43061 3.95378C2.05394 4.56878 1.88561 5.26711 1.80394 6.11961C1.72478 6.96461 1.72478 8.02128 1.72478 9.37294H2.97478ZM4.01311 2.37045C3.36809 2.76564 2.8258 3.30876 2.43061 3.95378L3.49728 4.60545C3.78906 4.12903 4.1894 3.7284 4.66561 3.43628L4.01311 2.37045ZM9.86311 17.3646C9.69478 17.0788 9.54644 16.8263 9.40144 16.6279C9.2523 16.4105 9.05856 16.2272 8.83311 16.0904L8.20478 17.1713C8.24394 17.1946 8.29811 17.2363 8.39144 17.3646C8.49228 17.5029 8.60644 17.6946 8.78811 18.0013L9.86311 17.3646ZM7.16394 17.0738C7.53061 17.0804 7.76144 17.0854 7.93811 17.1046C8.10311 17.1229 8.16728 17.1496 8.20478 17.1713L8.83311 16.0904C8.59978 15.9612 8.34151 15.8833 8.07561 15.8621C7.82728 15.8346 7.52894 15.8304 7.18561 15.8246L7.16394 17.0754V17.0738ZM12.5781 18.0013C12.7598 17.6954 12.8739 17.5029 12.9748 17.3646C13.0681 17.2363 13.1223 17.1946 13.1614 17.1713L12.5331 16.0904C12.2914 16.2321 12.1164 16.4196 11.9648 16.6279C11.8206 16.8263 11.6714 17.0779 11.5023 17.3646L12.5781 18.0013ZM14.1814 15.8246C13.8381 15.8304 13.5389 15.8346 13.2906 15.8621C13.0314 15.8913 12.7773 15.9488 12.5331 16.0904L13.1614 17.1713C13.1989 17.1496 13.2631 17.1229 13.4281 17.1046C13.6048 17.0854 13.8364 17.0796 14.2031 17.0738L14.1814 15.8238V15.8246Z" fill="#2B3674"/>
<path d="M7.34978 8.12295H14.0164H7.34978ZM7.34978 11.0396H11.9331H7.34978Z" fill="#2B3674"/>
<path d="M7.34978 8.12295H14.0164M7.34978 11.0396H11.9331" stroke="#2B3674" stroke-width="1.5" stroke-linecap="round"/>
</g>
<defs>
<clipPath id="clip0_0_907">
<rect width="20.0002" height="21" fill="white" transform="translate(0.682861 0.5)"/>
</clipPath>
</defs>
</svg>
