<svg width="21" height="22" viewBox="0 0 21 22" fill="none" xmlns="http://www.w3.org/2000/svg">
<g clip-path="url(#clip0_79_66)">
<path d="M11.2001 6.49988H1.20007H11.2001ZM8.20007 11.4999H1.20007H8.20007ZM6.20007 16.4999H1.20007H6.20007Z" fill="#2B3674"/>
<path d="M11.2001 6.49988H1.20007M8.20007 11.4999H1.20007M6.20007 16.4999H1.20007" stroke="#2B3674" stroke-width="1.5" stroke-linecap="round"/>
<path d="M9.26622 16.1919C9.22577 16.2817 9.20341 16.3786 9.20042 16.4771C9.19742 16.5755 9.21385 16.6736 9.24877 16.7657C9.28368 16.8579 9.3364 16.9422 9.40391 17.0139C9.47141 17.0857 9.55239 17.1434 9.64222 17.1839C9.73204 17.2243 9.82895 17.2467 9.92742 17.2497C10.0259 17.2527 10.124 17.2362 10.2161 17.2013C10.3082 17.1664 10.3925 17.1137 10.4643 17.0462C10.536 16.9787 10.5938 16.8977 10.6342 16.8079L9.26622 16.1919ZM14.4502 6.49987L15.1342 6.19187C15.0749 6.06008 14.9789 5.94821 14.8575 5.86974C14.7362 5.79126 14.5947 5.74951 14.4502 5.74951C14.3057 5.74951 14.1643 5.79126 14.0429 5.86974C13.9216 5.94821 13.8255 6.06008 13.7662 6.19187L14.4502 6.49987ZM18.2662 16.8079C18.3479 16.9893 18.4983 17.1308 18.6843 17.2013C18.8704 17.2718 19.0768 17.2656 19.2582 17.1839C19.4396 17.1022 19.5812 16.9518 19.6517 16.7657C19.7222 16.5797 19.7159 16.3733 19.6342 16.1919L18.2662 16.8079ZM11.5862 12.1139C11.3873 12.1139 11.1965 12.1929 11.0559 12.3335C10.9152 12.4742 10.8362 12.665 10.8362 12.8639C10.8362 13.0628 10.9152 13.2535 11.0559 13.3942C11.1965 13.5349 11.3873 13.6139 11.5862 13.6139V12.1139ZM10.6342 16.8079L15.1342 6.80787L13.7662 6.19187L9.26622 16.1919L10.6342 16.8079ZM19.6342 16.1919L17.9982 12.5559L16.6302 13.1709L18.2662 16.8079L19.6342 16.1919ZM17.9982 12.5559L15.1342 6.19187L13.7662 6.80787L16.6302 13.1709L17.9982 12.5559ZM17.3142 12.1139H11.5862V13.6139H17.3142V12.1139Z" fill="#2B3674"/>
</g>
<defs>
<clipPath id="clip0_79_66">
<rect width="20.0002" height="21" fill="white" transform="translate(0.200058 0.5)"/>
</clipPath>
</defs>
</svg>
