<svg width="17" height="17" viewBox="0 0 17 17" fill="none" xmlns="http://www.w3.org/2000/svg">
<path d="M3.48587 3.65266C3.48587 3.25484 3.64391 2.87331 3.92521 2.592C4.20651 2.3107 4.58805 2.15266 4.98587 2.15266H7.82187V5.318C7.82187 5.51498 7.86067 5.71003 7.93605 5.89202C8.01143 6.07401 8.12192 6.23937 8.26121 6.37866C8.54251 6.65996 8.92405 6.818 9.32187 6.818H12.4859V12.3193C12.4859 12.7172 12.3278 13.0987 12.0465 13.38C11.7652 13.6613 11.3837 13.8193 10.9859 13.8193H4.98587C4.58805 13.8193 4.20651 13.6613 3.92521 13.38C3.64391 13.0987 3.48587 12.7172 3.48587 12.3193V3.65266ZM5.98587 8.486C5.85326 8.486 5.72609 8.53868 5.63232 8.63244C5.53855 8.72621 5.48587 8.85339 5.48587 8.986C5.48587 9.11861 5.53855 9.24578 5.63232 9.33955C5.72609 9.43332 5.85326 9.486 5.98587 9.486C6.11848 9.486 6.24566 9.43332 6.33942 9.33955C6.43319 9.24578 6.48587 9.11861 6.48587 8.986C6.48587 8.85339 6.43319 8.72621 6.33942 8.63244C6.24566 8.53868 6.11848 8.486 5.98587 8.486ZM5.48587 10.986C5.48587 11.1186 5.53855 11.2458 5.63232 11.3396C5.72609 11.4333 5.85326 11.486 5.98587 11.486C6.11848 11.486 6.24566 11.4333 6.33942 11.3396C6.43319 11.2458 6.48587 11.1186 6.48587 10.986C6.48587 10.8534 6.43319 10.7262 6.33942 10.6324C6.24566 10.5387 6.11848 10.486 5.98587 10.486C5.85326 10.486 5.72609 10.5387 5.63232 10.6324C5.53855 10.7262 5.48587 10.8534 5.48587 10.986ZM7.48587 8.986C7.48587 9.262 7.70987 9.486 7.98587 9.486H10.0219C10.1545 9.486 10.2817 9.43332 10.3754 9.33955C10.4692 9.24578 10.5219 9.11861 10.5219 8.986C10.5219 8.85339 10.4692 8.72621 10.3754 8.63244C10.2817 8.53868 10.1545 8.486 10.0219 8.486H7.98587C7.85326 8.486 7.72609 8.53868 7.63232 8.63244C7.53855 8.72621 7.48587 8.85339 7.48587 8.986ZM7.98587 10.486C7.85326 10.486 7.72609 10.5387 7.63232 10.6324C7.53855 10.7262 7.48587 10.8534 7.48587 10.986C7.48587 11.1186 7.53855 11.2458 7.63232 11.3396C7.72609 11.4333 7.85326 11.486 7.98587 11.486H10.0219C10.1545 11.486 10.2817 11.4333 10.3754 11.3396C10.4692 11.2458 10.5219 11.1186 10.5219 10.986C10.5219 10.8534 10.4692 10.7262 10.3754 10.6324C10.2817 10.5387 10.1545 10.486 10.0219 10.486H7.98587ZM8.82187 5.318V2.46466C8.87254 2.50333 8.92187 2.546 8.9672 2.592L12.0465 5.67133C12.0932 5.718 12.1359 5.76666 12.1752 5.818H9.32187C9.18926 5.818 9.06209 5.76532 8.96832 5.67155C8.87455 5.57778 8.82187 5.45061 8.82187 5.318ZM5.23854 14.486C5.34192 14.7784 5.53341 15.0316 5.78664 15.2107C6.03987 15.3898 6.34238 15.486 6.65254 15.486H10.9859C11.4017 15.486 11.8135 15.4041 12.1977 15.2449C12.5819 15.0858 12.931 14.8526 13.225 14.5585C13.5191 14.2644 13.7523 13.9154 13.9115 13.5312C14.0706 13.147 14.1525 12.7352 14.1525 12.3193V8.39866C14.1525 8.20163 14.1135 8.00655 14.0381 7.82456C13.9626 7.64257 13.8519 7.47723 13.7125 7.338L13.1525 6.77733V12.3193C13.1525 12.894 12.9243 13.4451 12.5179 13.8514C12.1116 14.2577 11.5605 14.486 10.9859 14.486H5.23854Z" fill="#7482AE"/>
</svg>
