   <svg width="20" height="20" viewBox="0 0 20 20" fill="none" xmlns="http://www.w3.org/2000/svg">
            <path 
                d="M11.9633 2.1625C11.9809 2.14039 12.0028 2.12208 12.0277 2.10869C12.0526 2.0953 12.0799 2.08711 12.108 2.08462C12.1362 2.08212 12.1645 2.08538 12.1914 2.09418C12.2182 2.10299 12.243 2.11716 12.2642 2.13584L13.0325 2.8125L10.6158 5.83334H12.2158L13.9708 3.64L15.3475 4.85417C15.3882 4.89014 15.4133 4.94059 15.4173 4.99476C15.4214 5.04894 15.4041 5.10255 15.3692 5.14417L14.7942 5.83334H16.4142C16.6148 5.53957 16.7012 5.18258 16.657 4.82957C16.6128 4.47656 16.4411 4.15189 16.1742 3.91667L13.0908 1.1975C12.9421 1.06651 12.7682 0.967204 12.5798 0.905664C12.3914 0.844123 12.1924 0.821635 11.995 0.839572C11.7976 0.85751 11.606 0.915497 11.4317 1.00999C11.2575 1.10449 11.1044 1.23351 10.9817 1.38917L7.48 5.83334H9.07167L11.9633 2.1625ZM4.375 5.41667C4.20924 5.41667 4.05027 5.48252 3.93306 5.59973C3.81585 5.71694 3.75 5.87591 3.75 6.04167C3.75 6.20743 3.81585 6.3664 3.93306 6.48361C4.05027 6.60082 4.20924 6.66667 4.375 6.66667H15.2083C15.9266 6.66667 16.6155 6.95201 17.1234 7.45992C17.6313 7.96783 17.9167 8.65671 17.9167 9.375V14.7917C17.9167 15.51 17.6313 16.1988 17.1234 16.7068C16.6155 17.2147 15.9266 17.5 15.2083 17.5H5.20833C4.49004 17.5 3.80116 17.2147 3.29325 16.7068C2.78534 16.1988 2.5 15.51 2.5 14.7917V6.04167C2.5 5.54439 2.69754 5.06748 3.04917 4.71584C3.40081 4.36421 3.87772 4.16667 4.375 4.16667H7.975L6.98167 5.41667H4.375ZM12.9167 12.2917C12.9167 12.6367 13.1967 12.9167 13.5417 12.9167H15.2083C15.3741 12.9167 15.5331 12.8508 15.6503 12.7336C15.7675 12.6164 15.8333 12.4574 15.8333 12.2917C15.8333 12.1259 15.7675 11.9669 15.6503 11.8497C15.5331 11.7325 15.3741 11.6667 15.2083 11.6667H13.5417C13.3759 11.6667 13.2169 11.7325 13.0997 11.8497C12.9825 11.9669 12.9167 12.1259 12.9167 12.2917Z" 
                fill="#2B3674"/>
        </svg>