<svg width="17" height="17" viewBox="0 0 17 17" fill="none" xmlns="http://www.w3.org/2000/svg">
<g clip-path="url(#clip0_0_937)">
<path d="M1.92996 8.20703C1.92996 5.06437 1.92996 3.49303 2.90596 2.51637C3.8833 1.54037 5.45396 1.54037 8.59663 1.54037C11.7393 1.54037 13.3106 1.54037 14.2866 2.51637C15.2633 3.4937 15.2633 5.06437 15.2633 8.20703C15.2633 11.3497 15.2633 12.921 14.2866 13.897C13.3113 14.8737 11.7393 14.8737 8.59663 14.8737C5.45396 14.8737 3.88263 14.8737 2.90596 13.897C1.92996 12.9217 1.92996 11.3497 1.92996 8.20703Z" stroke="#7482AE" stroke-width="1.5"/>
<path d="M11.93 6.8737H5.26331L7.55531 4.8737M5.26331 9.54037H11.93L9.63797 11.5404" stroke="#7482AE" stroke-width="1.5" stroke-linecap="round" stroke-linejoin="round"/>
</g>
<defs>
<clipPath id="clip0_0_937">
<rect width="16" height="16" fill="white" transform="translate(0.596619 0.207031)"/>
</clipPath>
</defs>
</svg>
